<?xml version="1.0" encoding="utf-8" ?>
<svg xmlns="http://www.w3.org/2000/svg" xmlns:xlink="http://www.w3.org/1999/xlink" width="1024" height="1024" viewBox="0 0 1024 1024">
  <defs>
    <linearGradient id="gradient_0" gradientUnits="userSpaceOnUse" x1="545.52264" y1="917.14441" x2="488.45358" y2="145.9722">
      <stop offset="0" stop-color="#763619"/>
      <stop offset="1" stop-color="#93552B"/>
    </linearGradient>
  </defs>
  <path fill="url(#gradient_0)" d="M416.833 478.426C412.607 470.601 405.28 459.802 400.338 452.136C348.602 371.889 326.429 263.936 383.411 180.266C386.424 175.842 407.09 149.63 410.452 149.092C410.438 150.321 409.953 151.291 409.209 152.255C400.544 163.489 391.885 174.186 384.882 186.608C374.045 206.171 366.5 227.383 362.548 249.395C352.832 304.753 371.538 362.417 399.876 409.531C402.231 413.447 404.459 417.218 407.091 420.965C410.611 417.736 413.553 413.828 416.438 409.98C435.031 385.176 449.527 349.217 433.255 319.715C431.965 317.376 430.823 314.787 429.63 312.387L430.011 312.315C432.138 314.922 433.697 318.038 435.423 320.923C456.278 355.784 437.895 403.911 415.373 434.112C417.579 438.179 420.364 442.157 422.968 445.984C435.236 464.016 447.937 481.653 461.32 498.875C465.97 504.86 470.243 511.161 475.024 517.051C482.192 495.454 490.98 470.749 504.936 452.659C510.546 445.387 519.933 437.666 524.915 430.154L525.357 429.477C517.117 451.978 508.465 474.53 500.546 497.126C495.899 510.383 492.724 525.335 489.36 539.024C490.139 540.885 491.467 543.348 492.464 545.144C499.421 557.681 503.74 570.403 507.85 584.084C510.41 579.182 513.603 567.309 515.969 561.046C521.402 546.707 527.892 532.791 535.384 519.412C546.901 498.451 561.816 476.599 574.824 456.401C582.047 445.184 591.191 432.664 597.699 421.114C594.933 408.304 592.619 394.023 589.062 381.554C576.559 337.732 556.874 292.337 528.495 256.499L529.246 255.24C532.505 257.981 539.024 265.199 541.931 268.499C572.488 303.186 598.203 354.863 609.317 399.438C618.892 378.439 626.083 346.049 629.525 323.249C638.456 264.099 609.048 197.525 573.822 151.201L575.094 149.815C588.474 163.796 598.753 179.818 608.568 196.425C644.13 256.603 654.002 308.914 637.949 377.183C644.172 369.34 649.674 360.917 655.179 352.557C672.608 325.573 688.393 297.562 702.45 268.678C713.05 247.428 721.947 225.613 734.388 205.224C736.687 201.456 740.084 195.032 742.985 191.948C741.608 194.812 739.458 199.677 737.946 202.285L737.19 203.341L737.41 203.969C722.196 231.648 710.793 264.749 698.879 294.073C684.526 329.401 667.313 358.756 646.83 390.653C635.803 407.686 624.936 424.821 614.23 442.057C608.671 451.036 598.543 466.464 594.326 475.3C641.835 468.008 680.256 450.589 721.353 426.627L720.6 427.242C712.582 433.847 706.071 442.26 697.576 448.254C665.155 471.13 623.941 488.212 584.579 492.606C557.511 534.684 537.416 577.187 530.141 626.912C529.009 634.65 526.442 648.47 526.691 656.203C532.141 650.729 537.469 642.521 542.599 636.54C573.233 600.729 614.255 578.965 655.967 558.801C670.921 551.572 690.077 540.189 703.049 530.018C756.49 488.114 780.201 424.445 793.508 359.982C799.083 332.979 804.463 303.404 814.553 277.622C814.201 281.508 813.01 285.909 812.063 289.756C802.388 329.027 800.248 369.726 790.514 408.959C789.429 413.335 788.49 417.704 788.041 422.195C792.684 417.326 798.672 410.496 803.452 406.158C822.449 388.921 851.674 368.738 876.284 361.887C867.223 368.434 857.678 373.828 848.286 380.422C823.133 398.079 799.828 421.43 781.707 446.202C778.561 450.503 774.346 460.816 771.977 465.995C768.564 473.354 764.896 480.593 760.98 487.697C753.584 500.921 746.322 511.392 736.243 522.707C732.649 526.742 726.966 532.083 723.814 535.951C756.905 536.42 781.515 531.108 811.596 516.553C823.204 510.937 834.578 503.915 846.473 499.061C852.939 496.422 861.328 494.484 868.193 492.732C864.636 494.778 860.457 496.631 856.669 498.284C840.087 505.519 825.506 516.248 809.874 525.303C785.508 539.419 758.845 546.314 730.729 545.565C725.049 545.44 718.729 545.666 712.984 545.158C706.241 549.748 699.983 555.583 693.131 559.846C672.011 572.984 649.979 584.791 628.381 597.164C662.375 588.992 719.475 602.589 749.272 620.638C752.116 622.395 754.847 624.327 757.45 626.424C744.133 623.149 730.716 617.826 717.953 613.946C685.624 604.119 633.13 597.883 603.387 616.11C580.3 630.258 546.596 682.284 541.301 708.406C529.209 768.066 544.177 861.727 575.688 913.311C576.34 914.376 577.01 915.431 577.698 916.473C538.798 914.333 497.373 915.139 458.375 916.01C454.119 916.105 438.134 916.379 435.284 917.029C461.773 855.91 475.378 767.219 465.98 700.71C464.605 690.863 458.799 665.565 449.659 659.993C419.58 641.657 371.6 640.593 338.738 646.537C328.162 648.543 317.633 650.798 307.163 653.301C302.424 654.473 295.403 656.721 290.953 657.451L291.283 656.978C299.786 653.315 307.538 649.223 316.482 646.269C352.765 634.284 403.311 623.966 440.248 635.54C438.604 632.802 436.331 629.786 434.347 627.327C411.389 598.868 378.852 579.093 345.95 564.074C343.658 563.028 339.86 560.824 337.339 560.65C330.365 560.168 323.28 560.926 316.229 560.953C303.275 561.06 290.327 560.387 277.455 558.939C235.834 554.23 171.387 534.571 144.524 500.852C151.453 504.868 157.103 508.93 164.554 512.975C214.509 540.089 257.817 545.671 313.762 546.729C304.096 538.937 293.264 532.138 283.26 523.716C241.62 488.661 223.14 454.807 212.242 402.157C200.873 401.04 173.626 393.1 162.889 389.258L163.837 387.903C165.802 388.142 168.144 388.736 170.151 389.084C184.013 391.489 198.052 392.898 211.695 396.429C206.136 359.003 213.899 314.351 226.765 279.327C229.178 272.757 233.255 260.234 237.059 254.685C232.471 272.169 227.537 288.227 224.119 306.141C213.852 359.95 222.127 416.256 252.198 462.592C310.752 552.819 416.875 538.42 478.839 629.061C478.553 620.296 477.146 614.174 475.686 605.71C470.126 573.462 457.624 545.256 441.328 517.111C437.373 510.281 433.139 502.112 428.634 495.603C421.576 493.134 412.123 491.502 404.51 489.002C370.693 477.896 341.08 455.874 319.13 427.997C313.15 420.403 306.551 411.917 302.12 403.327C310.577 407.286 315.776 415.425 322.767 421.929C344.803 442.43 364.684 460.486 393.337 471.317C401.557 474.424 407.841 476.919 416.833 478.426Z"/>
  <path fill="#809232" d="M858.41 429.721C869.463 429.766 880.517 429.706 891.57 429.54C891.785 440.859 891.597 452.64 891.543 463.984L858.217 463.936C858.147 454.659 857.707 438.695 858.41 429.721Z"/>
  <path fill="#809232" d="M155.516 287.439C166.641 287.375 177.766 287.442 188.889 287.641C189.099 298.747 188.949 310.353 189.013 321.516L155.543 321.482L155.516 287.439Z"/>
  <path fill="#809232" d="M114.253 395.084L147.814 395.067C147.945 406.384 147.718 417.707 147.856 429.064C137.496 428.66 124.902 428.948 114.373 428.923C114.228 417.644 114.188 406.364 114.253 395.084Z"/>
  <path fill="#809232" d="M373.847 281.596C384.537 282.005 396.266 281.792 407.011 281.737C406.865 293.015 406.993 304.569 407.01 315.87C396.647 316.193 384.32 316.019 373.932 315.79C373.765 304.38 374.068 292.978 373.847 281.596Z"/>
  <path fill="#809232" d="M818.205 275.703C823.259 276.402 845.12 275.931 851.471 275.89L851.457 310.079C840.356 309.929 829.254 309.884 818.152 309.944C818.073 298.53 818.09 287.116 818.205 275.703Z"/>
  <path fill="#809232" d="M171.561 573.226C180.227 572.638 195.954 573.217 205.047 573.269C204.881 584.657 204.952 596.046 205.259 607.43C194.02 607.292 182.78 607.241 171.539 607.276L171.561 573.226Z"/>
  <path fill="#809232" d="M234.511 208.128C245.652 208.035 256.795 208.065 267.935 208.218L267.945 242.476L234.599 242.315C235.189 231.609 234.744 218.978 234.511 208.128Z"/>
  <path fill="#809232" d="M649.5 160.111C659.897 159.789 671.968 160.067 682.489 160.072C682.432 169.044 683.096 186.269 682.295 194.447C676.482 193.955 655.359 193.993 649.488 194.382L649.5 160.111Z"/>
  <path fill="#809232" d="M645.768 480.26C655.339 479.757 668.674 480.069 678.308 480.182C677.956 491.753 678.56 502.608 678.396 514.02L645.016 513.995C645.015 509.558 644.1 482.175 645.768 480.26Z"/>
  <path fill="#809232" d="M189.972 238.537C201.125 238.768 212.282 238.826 223.437 238.712L223.514 272.496C212.513 272.643 201.07 272.306 190.013 272.253C190.103 261.014 190.09 249.775 189.972 238.537Z"/>
  <path fill="#809232" d="M625.932 112.564C636.956 112.606 647.979 112.581 659.003 112.491C658.989 117.17 659.818 144.833 658.356 146.87L625.993 146.758L625.932 112.564Z"/>
  <path fill="#809232" d="M443.253 296.085C454.049 295.864 465.654 296.075 476.508 296.087C476.548 304.969 477.087 321.683 476.353 329.932L443.133 329.924C443.78 320.481 443.302 305.899 443.253 296.085Z"/>
  <path fill="#809232" d="M758.185 638.087L791.333 638.015L791.58 671.854C780.48 671.91 769.381 671.901 758.281 671.826C757.991 660.78 758.175 649.174 758.185 638.087Z"/>
  <path fill="#809232" d="M444.056 108.765C445.192 109.949 444.554 138.892 444.526 142.762L412.875 142.603L411.912 142.446C411.068 140.723 411.281 113.633 411.255 108.873C421.359 109.039 434.092 109.321 444.056 108.765Z"/>
  <path fill="#809232" d="M312.75 478.941C322.939 478.744 335.817 478.575 345.898 479.016L345.778 513.003C335.505 512.456 323.422 512.976 312.691 512.61C313.258 503.48 312.95 488.34 312.75 478.941Z"/>
  <path fill="#809232" d="M770.583 202.284C770.577 213.423 770.698 224.841 770.55 235.957L737.163 235.942C737.26 225.503 737.128 214.309 737.41 203.969L737.19 203.341L737.946 202.285C747.977 201.937 760.47 202.066 770.583 202.284Z"/>
  <path fill="#809232" d="M873.491 513.264L874.281 513.782C873.839 523.016 873.803 538.032 874.292 547.324C864.241 546.857 853.107 547.088 842.972 547.1L841.685 547.139C840.553 545.228 841.088 517.656 841.068 513.31L873.491 513.264Z"/>
  <path fill="#809232" d="M176.089 456.238C186.954 456.235 198.381 456.375 209.2 456.116L209.445 488.125C209.419 488.831 209.337 488.752 209.004 489.457C206.511 490.145 180.061 489.655 175.719 489.62C176.301 478.502 175.556 467.083 176.089 456.238Z"/>
  <path fill="#809232" d="M776.486 237.059L809.488 237.099L809.487 270.97L776.475 270.859C776.401 259.593 776.404 248.326 776.486 237.059Z"/>
  <path fill="#809232" d="M415.487 253.344C425.886 253.715 438.063 253.476 448.572 253.494C448.986 263.492 448.752 277.026 448.532 287.093C439.002 286.602 425.213 286.983 415.417 286.98C415.34 275.768 415.363 264.556 415.487 253.344Z"/>
  <path fill="#809232" d="M410.329 157.269C420.822 156.98 432.295 157.304 442.93 157.221L442.892 191.123C433.329 190.58 419.407 190.914 409.565 190.879C409.829 185.573 409.465 160.075 410.329 157.269Z"/>
  <path fill="#809232" d="M723.879 386.695C734.882 386.875 745.887 386.908 756.891 386.793L756.897 420.647C745.874 420.67 734.852 420.633 723.83 420.535C723.954 409.256 723.971 397.975 723.879 386.695Z"/>
  <path fill="#809232" d="M235.016 314.335C245.264 314.724 257.648 314.482 267.959 314.433L267.999 348.43C257.179 348.574 245.862 348.272 234.907 348.346C235.424 338.476 235.031 324.473 235.016 314.335Z"/>
  <path fill="#809232" d="M214.38 562.553C225.314 562.504 236.467 563.255 247.447 562.611L247.513 595.905C246.322 596.913 218.659 596.443 214.528 596.448C214.188 585.642 214.404 573.452 214.38 562.553Z"/>
  <path fill="#809232" d="M396.983 522.256C407.527 522.174 418.292 522.361 428.852 522.435C428.877 526.407 429.255 553.592 428.704 555.898L427.125 555.993L395.546 555.895C395.846 548.656 395.639 541.487 395.659 534.263C395.667 531.358 395.364 525.294 395.934 522.678L396.983 522.256Z"/>
  <path fill="#809232" d="M484.139 192.083C495.231 192.171 506.322 192.2 517.414 192.168C517.332 204.254 517.006 213.509 517.448 225.924C506.715 225.618 494.974 225.794 484.184 225.749C484.076 214.527 484.062 203.305 484.139 192.083Z"/>
  <path fill="#809232" d="M303.4 126.764C310.439 126.456 318.213 126.567 325.315 126.539C324.476 135.782 325.304 150.667 325.341 160.431L313.75 160.463L292.44 160.527C292.263 149.271 292.204 138.013 292.261 126.756C295.974 126.795 299.687 126.797 303.4 126.764Z"/>
  <path fill="#809232" d="M651.087 666.227C662.173 666.139 673.261 666.128 684.347 666.194C684.355 674.648 683.659 683.174 684.122 691.666C684.264 694.264 684.267 697.133 684.142 699.725C673.299 699.903 661.659 699.676 650.793 699.591C651.233 688.845 651.046 677.05 651.087 666.227Z"/>
  <path fill="#809232" d="M312.269 354.251C323.166 354.206 334.063 354.267 344.959 354.435C344.961 365.512 344.807 377.027 345.191 388.063C334.237 387.997 323.283 388.004 312.329 388.085C312.1 381.471 311.687 359.809 312.269 354.251Z"/>
  <path fill="#809232" d="M593.431 111.254L610.984 111.179L611.023 144.98L597.977 144.938L578.042 144.94C578.396 134.433 578.102 122.001 578.111 111.35L593.431 111.254Z"/>
  <path fill="#809232" d="M587.347 302.728C597.892 303.062 609.762 302.629 620.455 302.578L620.255 335.845L620.069 336.15C618.084 336.935 591.543 336.459 587.548 336.443L587.347 302.728Z"/>
  <path fill="#809232" d="M374.133 658.465C385.166 658.922 396.202 658.718 407.238 658.551C407.59 669.122 407.384 681.211 407.419 691.89C403.645 692.968 380.341 692.017 374.482 692.286L374.133 658.465Z"/>
  <path fill="#809232" d="M244.063 263.098C255.037 262.995 266.011 262.979 276.985 263.05L277.013 296.882C266.001 296.872 254.989 296.78 243.978 296.605C244.256 285.798 244.049 273.981 244.063 263.098Z"/>
  <path fill="#809232" d="M532.875 413.461L565.825 413.493C565.971 424.527 565.768 436.016 565.728 447.077C555.597 446.658 542.841 446.972 532.515 446.961C533.325 437.395 532.901 423.315 532.875 413.461Z"/>
  <path fill="#809232" d="M853.039 319.087L886.198 319.106C885.799 326.807 885.779 345.243 886.372 352.779C878.903 353.284 861.371 352.618 853.067 352.592L853.039 319.087Z"/>
  <path fill="#809232" d="M645.639 616.948C656.539 617.171 668.025 617.023 678.97 617.041L678.925 650.617C667.948 650.647 656.971 650.61 645.994 650.506C645.586 639.451 646.376 627.661 645.639 616.948Z"/>
  <path fill="#809232" d="M311.628 231.956L344.031 232.053C343.882 240.09 344.624 259.077 343.814 265.826L311.519 265.827C311.44 254.584 311.913 243.144 311.628 231.956Z"/>
  <path fill="#809232" d="M541.013 168.133C551.69 167.836 563.222 168.018 573.983 167.933C573.943 172.084 574.489 199.588 573.463 201.104L540.69 201.123L541.013 168.133Z"/>
  <path fill="#809232" d="M438.3 404.072C449.159 403.972 460.019 403.962 470.878 404.042C470.853 408.463 471.38 433.854 470.641 436.131L469.574 436.283C459.232 436.173 448.89 436.177 438.548 436.294C438.063 426.292 438.207 414.067 438.3 404.072Z"/>
  <path fill="#809232" d="M653.779 418.255L667.054 418.371C666.916 428.847 666.798 440.505 667.134 450.918C661.995 450.609 654.099 450.872 648.75 450.897L634.678 450.94C635.301 441.657 634.968 427.982 635.006 418.353C641.166 418.216 647.596 418.28 653.779 418.255Z"/>
  <path fill="#809232" d="M511.846 128.751C521.944 129.037 531.976 128.611 542.065 128.788C541.831 139.326 542.12 150.055 541.954 160.656C531.995 160.928 521.327 160.676 511.251 160.802C511.191 155.816 510.457 131.914 511.846 128.751Z"/>
  <path fill="#C26629" d="M328.576 659.599C338.267 659.685 350.24 660.484 359.781 659.486C360.16 669.142 359.855 681.165 359.826 691.023C349.556 690.87 338.858 691.01 328.556 691.006C329.072 681.294 328.541 669.614 328.576 659.599Z"/>
  <path fill="#C26629" d="M346.517 143.317C356.489 143.637 367.181 143.487 377.205 143.522C377.714 153.145 377.42 164.936 377.347 174.744C374.613 175.31 350.822 174.943 346.488 174.908C346.596 164.378 346.606 153.847 346.517 143.317Z"/>
  <path fill="#C26629" d="M394.893 204.423L425.472 204.519L425.48 236.189C418.679 235.608 401.856 236.023 394.853 236.073C394.989 225.524 395.002 214.973 394.893 204.423Z"/>
  <path fill="#C26629" d="M156.354 448.245L162.912 448.401L162.946 479.529L139.25 479.507L132.1 479.511L132.017 448.394L156.354 448.245Z"/>
  <path fill="#C26629" d="M164.086 412.022C172.023 412.466 186.802 412.456 194.83 412.15L194.827 443.31C191.85 443.812 168.413 443.449 164.011 443.424C164.217 433.195 164.067 422.301 164.086 412.022Z"/>
  <path fill="#C26629" d="M530.555 218.157L561.474 218.022C561.511 227.51 561.94 240.354 561.363 249.471C551.119 249.524 540.875 249.494 530.631 249.382C530.934 240.842 531.18 226.609 530.555 218.157Z"/>
  <path fill="#C26629" d="M756.983 288.519L787.514 288.511C787.767 298.888 787.577 309.745 787.541 320.157C780.575 319.56 764.641 319.901 756.879 319.84C757.211 309.632 757.011 298.777 756.983 288.519Z"/>
  <path fill="#C26629" d="M723.105 248.475C732.945 248.679 743.613 248.509 753.508 248.52C753.564 259.061 753.554 269.602 753.478 280.143C746.745 279.51 730.51 279.956 723.057 279.952L723.105 248.475Z"/>
  <path fill="#C26629" d="M695.966 162.494C705.886 162.682 716.552 162.51 726.522 162.51L726.552 193.983L696.024 193.879L695.966 162.494Z"/>
  <path fill="#C26629" d="M138.295 529.121C148.494 529.029 158.693 529.051 168.891 529.186C168.916 538.787 169.303 551.021 168.822 560.436L138.319 560.407C138.019 550.384 138.157 539.122 138.295 529.121Z"/>
  <path fill="#C26629" d="M484.279 246.27C494.107 246.133 505.078 246.104 514.862 246.425C514.749 256.657 514.903 267.122 514.943 277.371C512.184 277.848 489.185 277.535 484.49 277.519C484.103 267.107 484.033 256.686 484.279 246.27Z"/>
  <path fill="#C26629" d="M267.229 608.27L297.762 608.205C297.642 618.09 297.866 628.636 297.926 638.565L297.713 639.362C295.401 639.894 271.194 639.585 267.217 639.57C267.385 629.262 267.092 618.696 267.229 608.27Z"/>
  <path fill="#C26629" d="M703.867 628.038L734.522 628.087C734.456 638.555 734.487 649.024 734.614 659.492L703.973 659.336C704.002 648.903 703.966 638.47 703.867 628.038Z"/>
  <path fill="#C26629" d="M670.066 217.077C679.99 217.318 690.624 217.152 700.602 217.167C701.058 226.388 700.679 238.896 700.697 248.483C690.455 248.583 680.207 248.181 669.976 248.45L670.066 217.077Z"/>
  <path fill="#C26629" d="M764.862 592.28C774.256 591.781 785.986 592.171 795.54 592.245C795.65 602.565 795.529 613.046 795.503 623.379C785.965 623.633 774.613 623.086 764.702 623.183C764.627 613.03 764.834 602.481 764.862 592.28Z"/>
  <path fill="#C26629" d="M272.79 359.207C281.801 359.51 291.227 359.389 300.236 359.234C300.412 368.615 300.242 378.491 300.332 387.918C300.348 389.629 300.396 389.657 299.496 390.474C289.575 390.33 279.652 390.332 269.731 390.481C269.52 386.636 268.894 361.021 270.244 359.416L272.79 359.207Z"/>
  <path fill="#C26629" d="M537.478 91.105L567.929 91.0938L567.972 122.557C558.163 122.743 547.444 122.536 537.575 122.521C537.737 112.049 537.705 101.575 537.478 91.105Z"/>
  <path fill="#C26629" d="M599.29 634.74C609.389 635.086 619.722 634.966 629.844 634.959C629.665 645.241 629.63 655.526 629.738 665.81C626.794 666.364 603.627 665.991 599.01 665.956C599.049 657.91 598.461 641.995 599.29 634.74Z"/>
  <path fill="#C26629" d="M564.356 551.085L594.978 551.045C594.822 561.325 595.211 571.892 594.913 582.115C586.383 582.135 572.256 581.698 564.352 582.487C564.23 572.02 564.232 561.552 564.356 551.085Z"/>
  <path fill="#C26629" d="M486.52 386.931C496.378 387.236 507.405 386.939 517.383 386.984C517.558 397.162 517.454 407.762 517.484 417.969C507.17 417.891 496.856 417.871 486.543 417.908C486.899 407.559 486.669 397.281 486.52 386.931Z"/>
  <path fill="#C26629" d="M808.07 464.407C818.168 464.565 828.415 463.988 838.527 464.497C838.436 474.936 838.462 485.376 838.605 495.815C831.463 495.119 815.872 495.565 808.186 495.565C808.076 485.179 808.037 474.793 808.07 464.407Z"/>
  <path fill="#C26629" d="M146.261 343.024L176.899 343.107C176.914 346.919 177.423 372.839 176.337 374.272C170.715 373.827 151.983 373.888 146.277 374.34C146.193 363.902 146.187 353.463 146.261 343.024Z"/>
  <path fill="#C26629" d="M360.501 594.49L391.058 594.537C390.946 604.922 391.184 615.306 391.102 625.684C383.817 625.558 367.333 625.22 360.51 625.901L360.501 594.49Z"/>
  <path fill="#C26629" d="M800.531 544.482C810.464 544.643 820.996 544.474 830.971 544.461C830.793 551.748 831.601 569.666 830.784 575.748C820.973 576.145 810.452 575.615 800.456 575.871C801.076 566.252 800.733 554.215 800.531 544.482Z"/>
  <path fill="#C26629" d="M452.402 448.527L482.886 448.503L482.642 479.962C472.598 479.819 462.553 479.751 452.508 479.756L452.402 448.527Z"/>
  <path fill="#C26629" d="M217.672 497.856C227.494 498.078 238.196 497.912 248.059 497.927C248.003 507.987 248.471 518.806 248.243 528.685L247.551 529.203C237.92 528.771 227.235 528.98 217.524 528.978C217.798 519.133 218.215 507.661 217.672 497.856Z"/>
  <path fill="#C26629" d="M458.018 350.508L488.398 350.515C488.644 360.547 488.458 371.558 488.466 381.662L458.138 381.499C458.027 371.169 457.987 360.839 458.018 350.508Z"/>
  <path fill="#C26629" d="M813.519 332.567C823.984 332.798 833.585 333.014 844.075 332.831C843.983 343.191 843.965 353.552 844.019 363.913L813.523 363.653C813.943 354.353 813.807 341.882 813.519 332.567Z"/>
  <path fill="#C26629" d="M247.042 406.048C256.039 406.472 268.348 406.195 277.457 406.222L277.519 437.084L247.103 436.975C247.4 427.434 247.078 415.741 247.042 406.048Z"/>
  <path fill="#C26629" d="M853.805 388.042L884.144 388.003C884.787 396.955 884.007 408.948 884.48 418.84C881.98 419.372 857.798 419.007 853.822 418.978C854.122 409.581 854.204 397.384 853.805 388.042Z"/>
  <path fill="#C26629" d="M300.332 283.747C308.105 284.459 322.006 284.073 330.167 284.081C330.75 292.365 330.452 306.379 330.516 315.082C320.443 314.986 310.37 315.004 300.299 315.135C300.202 304.943 299.972 293.88 300.332 283.747Z"/>
  <path fill="#C26629" d="M527.604 367.338C537.688 367.497 547.953 367.341 558.067 367.405C557.95 377.772 557.974 388.14 558.14 398.507L527.813 398.483C527.958 388.667 528.065 377.074 527.604 367.338Z"/>
  <path fill="#C26629" d="M503.538 292.51L533.774 292.513L533.791 322.841C532.512 324.081 507.308 323.442 503.568 323.421C503.483 313.276 503.905 302.546 503.538 292.51Z"/>
  <path fill="#C26629" d="M391.224 340.328C401.241 340.522 411.429 340.315 421.525 340.489C421.558 348.151 422.056 364.551 421.338 371.382C411.767 371.398 400.692 370.693 391.216 371.427C391.568 361.926 391.178 350.072 391.224 340.328Z"/>
  <path fill="#C26629" d="M359.061 500.3L389.135 500.424C389.247 508.571 390.07 523.461 389.257 531.223L359.013 531.006L359.061 500.3Z"/>
  <path fill="#809232" d="M220.855 609.595C230.242 609.7 239.631 609.665 249.018 609.488C248.956 619.109 249.352 629.825 248.934 639.318C239.578 639.062 229.884 639.181 220.501 639.178C220.457 629.257 220.954 619.418 220.855 609.595Z"/>
  <path fill="#809232" d="M708.077 290.237C717.464 290.187 726.852 290.195 736.239 290.259C736.399 300.036 736.467 309.815 736.442 319.593C727.263 319.338 717.324 319.538 708.089 319.55C708.19 309.78 708.186 300.008 708.077 290.237Z"/>
  <path fill="#C26629" d="M512.856 474.081L540.994 474.261L541.025 503.081L512.689 502.995C513.111 493.475 512.92 483.635 512.856 474.081Z"/>
  <path fill="#809232" d="M767.274 490.008C776.55 489.855 786.199 490.032 795.515 490.024C795.53 494.437 795.863 515.742 795.207 518.305L794.125 518.482C785.171 518.425 776.217 518.415 767.263 518.453C767.208 508.972 767.211 499.49 767.274 490.008Z"/>
  <path fill="#809232" d="M249.287 649.54L277.491 649.513L277.515 678.001C268.305 677.807 258.645 677.942 249.401 677.931C249.434 668.467 249.396 659.003 249.287 649.54Z"/>
  <path fill="#809232" d="M115.398 488.344C124.371 488.742 134.501 488.532 143.558 488.541C143.826 497.512 143.539 507.866 143.509 516.944C134.428 516.714 124.613 516.911 115.477 516.924C115.35 507.448 115.417 497.831 115.398 488.344Z"/>
  <path fill="#809232" d="M506.48 331.688C515.559 331.395 525.16 331.523 534.278 331.502C534.752 338.972 534.518 352.378 534.322 359.93C525.01 359.818 515.697 359.805 506.385 359.892C506.293 350.997 506.062 340.482 506.48 331.688Z"/>
  <path fill="#809232" d="M273.509 566.592C282.639 566.41 292.149 566.748 301.489 566.605C301.356 575.89 301.35 585.176 301.472 594.461C299.994 595.728 277.222 595.169 273.529 595.159L273.509 566.592Z"/>
  <path fill="#809232" d="M372.927 104.269C382.082 104.573 391.75 104.428 400.946 104.428C400.895 113.793 400.943 123.158 401.09 132.521L372.834 132.481C372.978 123.078 373.009 113.673 372.927 104.269Z"/>
  <path fill="#809232" d="M560.197 257.557C569.46 257.749 578.726 257.742 587.989 257.536L587.995 285.954C578.93 285.777 569.508 285.871 560.413 285.833C559.906 277.027 560.172 266.482 560.197 257.557Z"/>
  <path fill="#809232" d="M372.472 239.034L399.974 239.073L400.046 267.151C391.456 266.819 381.252 267.061 372.535 267.04L372.472 239.034Z"/>
  <path fill="#809232" d="M307.933 591.122L335.442 591.216L335.486 619.391C326.25 619.146 317.011 619.056 307.772 619.122C308.017 609.791 308.071 600.456 307.933 591.122Z"/>
  <path fill="#6B6B6C" d="M700.352 460.518C709.2 460.749 718.664 460.55 727.556 460.514C727.586 469.879 727.558 479.244 727.472 488.609C718.453 488.551 709.433 488.554 700.414 488.616C700.316 479.25 700.295 469.884 700.352 460.518Z"/>
  <path fill="#6B6B6C" d="M693.51 566.529C702.347 566.323 711.818 566.492 720.705 566.489C721.216 574.018 720.876 586.462 720.946 594.325C713.973 593.722 700.901 594.122 693.526 594.138C693.34 584.936 693.334 575.731 693.51 566.529Z"/>
  <path fill="#6B6B6C" d="M668.321 379.826C677.368 379.976 686.417 379.972 695.464 379.814L695.487 407.735C687.347 407.309 676.77 407.552 668.491 407.61C668.57 398.348 668.513 389.086 668.321 379.826Z"/>
  <path fill="#809232" d="M753.979 350.568C763.067 350.797 772.16 350.799 781.249 350.573C780.715 356.594 780.813 372.806 781.298 378.55C772.33 378.703 763.049 378.544 754.058 378.504L753.979 350.568Z"/>
  <path fill="#6B6B6C" d="M282.49 179.612C291.489 180.004 300.5 179.97 309.495 179.511L309.498 207L282.299 206.998C282.14 201.638 281.741 184.568 282.49 179.612Z"/>
  <path fill="#6B6B6C" d="M276.188 444.075L303.412 444.145C303.208 452.26 303.889 463.83 303.261 471.35C294.522 471.72 285.979 470.812 276.445 471.442C276.26 462.321 276.174 453.198 276.188 444.075Z"/>
  <path fill="#6B6B6C" d="M813.921 415.203C821.714 414.866 832.846 414.791 840.579 415.044C841.15 422.47 840.855 434.305 840.919 442.112L813.974 442.264C814.016 433.339 814.179 424.097 813.921 415.203Z"/>
  <path fill="#C26629" d="M632.04 201.676C639.743 201.67 649.462 201.418 656.996 201.878C657.607 207.383 657.299 220.532 657.313 226.349C655.766 227.527 635.689 226.951 632.126 226.929L632.04 201.676Z"/>
  <path fill="#C26629" d="M730.711 430.649L755.55 430.529C755.584 438.847 755.771 447.774 755.407 456.031L730.533 456.112C730.638 447.519 730.969 439.254 730.711 430.649Z"/>
  <path fill="#809232" d="M607.072 158.3C613.116 158.838 625.008 158.472 631.477 158.441C631.576 166.968 631.585 175.496 631.505 184.023L607.087 183.917L607.072 158.3Z"/>
  <path fill="#809232" d="M576.076 672.256C584.044 672.127 592.014 672.126 599.982 672.255L600.029 697.467C592.023 697.345 584.016 697.318 576.009 697.385L576.076 672.256Z"/>
  <path fill="#809232" d="M709.295 357.976C714.71 357.462 727.197 357.903 733.131 357.944C733.056 361.576 733.63 381.177 732.856 382.645C725.013 382.716 717.17 382.736 709.326 382.704C709.17 374.462 709.16 366.218 709.295 357.976Z"/>
  <path fill="#809232" d="M344.23 409.924C351.876 410.167 360.312 410.009 368.019 410.021L368.08 434.476L344.22 434.508C344.096 426.314 344.099 418.118 344.23 409.924Z"/>
  <path fill="#6B6B6C" d="M596.164 254.323C601.54 254.866 614.251 254.512 619.909 254.492L619.956 278.574C611.995 278.443 604.23 278.268 596.263 278.581C596.078 270.662 596.19 262.279 596.164 254.323Z"/>
  <path fill="#809232" d="M573.506 210.996C581.33 211.2 589.582 211.089 597.439 211.103L597.435 234.928C589.824 234.69 581.3 234.855 573.616 234.832L573.506 210.996Z"/>
  <path fill="#809232" d="M449.277 204.136C456.428 204.159 464.848 204.388 471.898 204.079L471.864 227.552C464.469 227.381 456.625 227.494 449.194 227.474C449.294 219.695 449.322 211.916 449.277 204.136Z"/>
  <path fill="#809232" d="M766.178 548.591C770.403 549.34 783.945 548.962 788.445 548.517C788.496 552.172 788.945 567.996 788.029 570.727C782.142 571.102 772.137 570.687 766.102 570.6C766.05 563.264 766.076 555.927 766.178 548.591Z"/>
  <path fill="#809232" d="M229.527 365.882C236.721 365.996 243.916 365.998 251.11 365.888C250.95 373.06 250.966 380.235 251.156 387.406C244.985 387.17 235.666 386.943 229.62 387.442L229.527 365.882Z"/>
  <path fill="#C26629" d="M292.033 668.458C298.688 668.68 306.128 668.527 312.843 668.524L312.911 689.456C306.091 689.362 299.125 689.153 292.325 689.503C291.928 683.057 292.072 675.03 292.033 668.458Z"/>
  <path fill="#C26629" d="M282.483 227.57L302.994 227.518C302.944 234.521 302.938 241.524 302.973 248.526C296.201 248.634 289.283 248.574 282.498 248.583C282.427 241.579 282.422 234.575 282.483 227.57Z"/>
  <path fill="#C26629" d="M834.621 587.499L855.439 587.478C855.498 594.35 855.516 601.222 855.492 608.094L834.641 608.06L834.621 587.499Z"/>
  <path fill="#C26629" d="M735.542 571.965C742.519 572.023 749.496 572.021 756.473 571.956L756.447 592.514L735.809 592.483C735.585 585.646 735.496 578.805 735.542 571.965Z"/>
  <path fill="#C26629" d="M318.517 324.499C325.324 324.649 332.133 324.659 338.94 324.531C339.002 331.484 338.948 338.438 338.777 345.389C332.037 345.259 325.295 345.289 318.556 345.477L318.517 324.499Z"/>
  <path fill="#C26629" d="M654.494 524.015L675.136 524.077C675.036 530.887 675.039 537.698 675.146 544.508L654.513 544.537L654.494 524.015Z"/>
  <path fill="#C26629" d="M707.506 500.468C707.287 507.264 707.232 514.065 707.342 520.864L707.198 521.109C704.977 522.206 690.772 521.578 687.488 521.514C687.61 514.523 687.59 507.53 687.429 500.54L707.506 500.468Z"/>
  <path fill="#C26629" d="M433.862 554.226C440.048 554.109 446.587 554.233 452.834 554.183C452.353 560.392 452.56 568.562 452.568 574.947L432.441 575.011C432.418 571.213 432.128 557.663 432.757 554.65L433.862 554.226Z"/>
  <path fill="#809232" d="M679.081 127.22L699.461 127.098C699.508 133.921 699.513 140.744 699.474 147.567C692.828 147.691 685.801 147.573 679.124 147.573L679.081 127.22Z"/>
  <path fill="#C26629" d="M496.58 95.0383L516.988 95.1402C516.92 101.199 517.268 109.351 516.855 115.194L516.078 115.721C509.551 115.69 503.024 115.691 496.497 115.727C497.079 110.025 496.931 100.807 496.58 95.0383Z"/>
  <path fill="#C26629" d="M649.265 257.048C656.017 256.949 662.771 256.932 669.524 256.998L669.596 277.57C662.867 277.694 656.137 277.687 649.408 277.548C649.218 270.716 649.17 263.881 649.265 257.048Z"/>
  <path fill="#C26629" d="M543.679 329.449C550.495 329.597 557.523 329.529 564.357 329.54C564.354 336.365 564.392 343.19 564.471 350.014L543.999 349.915C544.011 343.107 544.134 336.236 543.679 329.449Z"/>
  <path fill="#809232" d="M859.445 564.053C866.111 564.279 873.193 564.116 879.857 563.947L879.87 584.485C873.067 584.352 866.262 584.338 859.459 584.443L859.445 564.053Z"/>
  <path fill="#809232" d="M805.126 584.275C811.05 584.611 819.277 584.39 825.385 584.416L825.445 604.844C819.586 605.077 811.243 604.687 805.076 604.685C805.216 598.011 805.115 590.979 805.126 584.275Z"/>
  <path fill="#C26629" d="M331.357 188.062C338.075 188.135 344.794 188.074 351.509 187.879L351.639 208.495L331.448 208.499C331.331 201.747 331.384 194.829 331.357 188.062Z"/>
  <path fill="#809232" d="M730.519 329.114C737.174 329.034 743.83 329.083 750.483 329.262C750.509 332.175 751.042 348.314 749.855 349.753L730.496 349.745L730.519 329.114Z"/>
  <path fill="#809232" d="M693.169 669.451C699.925 669.353 706.681 669.348 713.437 669.434L713.465 689.788C706.823 689.902 699.892 689.804 693.225 689.809L693.169 669.451Z"/>
  <path fill="#809232" d="M457.237 129.134C463.855 128.979 470.798 129.11 477.446 129.148C477.237 136.354 477.202 142.228 477.371 149.423C471.204 149.668 463.687 149.473 457.454 149.44C457.215 142.674 457.143 135.903 457.237 129.134Z"/>
  <path fill="#809232" d="M269.001 166.38C269.097 166.47 269.336 184.222 269.428 186.453L249.625 186.501C248.88 185.086 249.183 169.194 249.179 166.368L269.001 166.38Z"/>
  <path fill="#809232" d="M654.308 289.643C661.189 289.915 667.437 289.912 674.329 289.841C673.897 296.572 674.302 303.318 674.408 310.075C667.975 309.855 660.732 310.018 654.236 310.031C654.19 303.235 654.214 296.439 654.308 289.643Z"/>
  <path fill="#809232" d="M472.251 156.15L492.152 156.221C492.091 161.58 491.795 171.478 492.409 176.494C485.739 176.405 479.068 176.393 472.397 176.457C472.116 169.841 472.237 162.807 472.251 156.15Z"/>
  <path fill="#809232" d="M872.643 471.755C879.194 472.01 886.37 471.91 892.972 471.936C892.997 476.572 893.4 487.876 892.909 491.997L872.702 491.924C872.669 485.22 873.098 478.406 872.643 471.755Z"/>
  <path fill="#809232" d="M693.177 332.559C699.82 332.642 706.463 332.681 713.106 332.675C712.955 339.294 713.03 346.224 713.005 352.869L693.395 352.909C693.058 346.439 693.185 339.106 693.177 332.559Z"/>
  <path fill="#809232" d="M399.046 380.887C405.693 380.797 412.34 380.822 418.985 380.963C418.911 387.665 418.952 394.368 419.109 401.069C412.583 400.888 405.592 400.98 399.029 400.949C399.232 394.557 399.062 387.342 399.046 380.887Z"/>
  <path fill="#809232" d="M469.675 104.1C476.17 103.99 482.936 104.082 489.454 104.075C489.533 110.903 489.523 117.731 489.423 124.559L469.775 124.452C469.484 117.871 470.023 111.087 469.675 104.1Z"/>
  <path fill="#809232" d="M565.181 381.114L584.849 381.091L584.984 401.465C578.386 401.309 571.785 401.297 565.186 401.429C565.1 394.657 565.099 387.885 565.181 381.114Z"/>
  <path fill="#6B6B6C" d="M280.459 324.642C286.174 324.398 293.724 324.633 299.543 324.742L299.522 345.003L280.342 344.96C280.657 338.777 280.457 330.951 280.459 324.642Z"/>
  <path fill="#809232" d="M183.502 336.038L203.321 335.959C202.945 342.329 203.147 349.341 203.303 355.72C200.785 356.204 187.346 355.942 183.821 355.92C183.825 349.424 183.977 342.486 183.502 336.038Z"/>
  <path fill="#809232" d="M680.149 413.397C685.64 413.722 693.137 413.517 698.764 413.502C698.33 418.923 698.513 426.797 698.509 432.433C697.067 432.769 682.765 432.564 680.313 432.55C680.079 426.379 680.17 419.614 680.149 413.397Z"/>
  <path fill="#6B6B6C" d="M808.007 619.447L826.542 619.478C826.475 625.85 826.441 632.222 826.44 638.594C819.714 637.984 814.696 638.182 808.043 638.523C808.09 632.165 808.078 625.806 808.007 619.447Z"/>
  <path fill="#809232" d="M502.211 165.439C507.679 165.601 513.773 165.489 519.287 165.502C519.441 171.661 519.523 177.821 519.534 183.982L502.304 183.954C502.338 177.782 502.308 171.61 502.211 165.439Z"/>
  <path fill="#809232" d="M785.742 451.957C791.42 452.105 797.372 452.071 803.072 452.122C802.926 458.184 803.073 464.342 803.151 470.412C797.815 469.92 791.057 470.129 785.603 470.165C785.553 464.128 785.825 458.133 785.742 451.957Z"/>
  <path fill="#809232" d="M555.057 451.757L555.633 452.103C556.198 454.568 555.954 466.626 555.94 469.913C550.854 469.753 544.729 469.915 539.567 469.932L539.149 469.622C538.557 468.121 538.792 454.529 538.729 451.799C544.172 451.824 549.615 451.81 555.057 451.757Z"/>
  <path fill="#8C4C1A" d="M573.822 151.201C570.595 147.137 567.323 143.185 564.109 139.084L564.328 138.7L563.713 138.417L563.889 138.68C565.713 139.194 573.251 147.76 575.094 149.815L573.822 151.201Z"/>
  <path fill="#98614B" fill-opacity="0.93333334" d="M528.495 256.499C525.624 253.519 523.577 251.402 521.078 248.141L521.221 247.926C524.375 250.514 526.351 252.349 529.246 255.24L528.495 256.499Z"/>
  <path fill="#98614B" d="M162.889 389.258C159.945 388.071 156.828 386.999 154.251 385.182C157.467 386.015 160.663 386.923 163.837 387.903L162.889 389.258Z"/>
</svg>
